<svg width="35" height="35" viewBox="0 0 35 35" fill="none" xmlns="http://www.w3.org/2000/svg">
<g clip-path="url(#clip0_397_367)">
<path d="M34.5994 29.3163L28.9764 23.6951C30.339 21.9233 31.1508 19.707 31.1508 17.3046C31.1508 11.6521 26.6617 7.02898 21.0616 6.81058V5.79428C21.0616 5.43201 20.9178 5.08456 20.6619 4.82815L16.3093 0.469424C16.1823 0.342279 16.0315 0.241413 15.8655 0.172595C15.6995 0.103777 15.5216 0.0683565 15.3419 0.0683594H1.36719C0.612022 0.0683594 0 0.680381 0 1.43555V28.5059C0 29.261 0.612022 29.873 1.36719 29.873H19.6945C20.4494 29.873 21.0617 29.261 21.0617 28.5059V27.7982C23.3068 27.7107 25.3734 26.9151 27.0436 25.6289L32.6661 31.2501C33.2002 31.7836 34.0657 31.784 34.5998 31.2499C35.1335 30.7158 35.1334 29.8501 34.5994 29.3163ZM2.73438 27.1387V2.80273H14.775L18.3273 6.35981V7.05968C16.2477 7.52917 14.3523 8.62531 12.8946 10.2197H7.10938C6.35421 10.2197 5.74219 10.8317 5.74219 11.5869C5.74219 12.3421 6.35421 12.9541 7.10938 12.9541H11.0871C10.5097 14.2228 10.1911 15.594 10.15 16.9873H7.10938C6.35421 16.9873 5.74219 17.5993 5.74219 18.3545C5.74219 19.1097 6.35421 19.7217 7.10938 19.7217H10.4256C11.2371 23.1623 13.7231 25.9253 16.9542 27.1387H2.73438ZM20.6473 25.0729C16.3368 25.0729 12.8788 21.5743 12.8788 17.3046C12.8788 13.0499 16.3213 9.53613 20.6472 9.53613C24.9311 9.53613 28.4162 13.0211 28.4162 17.3045C28.4162 21.5879 24.9311 25.0729 20.6472 25.0729H20.6473Z" fill="#ECECEC"/>
</g>
<defs>
<clipPath id="clip0_397_367">
<rect width="35" height="35" fill="white"/>
</clipPath>
</defs>
</svg>
