<svg width="42" height="26" viewBox="0 0 42 26" fill="none" xmlns="http://www.w3.org/2000/svg">
<g clip-path="url(#clip0_417_518)">
<path d="M1.90909 3.71429H40.0909C40.5972 3.71429 41.0828 3.51862 41.4408 3.17034C41.7989 2.82206 42 2.34969 42 1.85714C42 1.3646 41.7989 0.892227 41.4408 0.543945C41.0828 0.195663 40.5972 0 40.0909 0H1.90909C1.40277 0 0.917184 0.195663 0.55916 0.543945C0.201136 0.892227 0 1.3646 0 1.85714C0 2.34969 0.201136 2.82206 0.55916 3.17034C0.917184 3.51862 1.40277 3.71429 1.90909 3.71429ZM40.0909 11.1429H1.90909C1.40277 11.1429 0.917184 11.3385 0.55916 11.6868C0.201136 12.0351 0 12.5075 0 13C0 13.4925 0.201136 13.9649 0.55916 14.3132C0.917184 14.6615 1.40277 14.8571 1.90909 14.8571H40.0909C40.5972 14.8571 41.0828 14.6615 41.4408 14.3132C41.7989 13.9649 42 13.4925 42 13C42 12.5075 41.7989 12.0351 41.4408 11.6868C41.0828 11.3385 40.5972 11.1429 40.0909 11.1429ZM40.0909 22.2857H1.90909C1.40277 22.2857 0.917184 22.4814 0.55916 22.8297C0.201136 23.1779 0 23.6503 0 24.1429C0 24.6354 0.201136 25.1078 0.55916 25.4561C0.917184 25.8043 1.40277 26 1.90909 26H40.0909C40.5972 26 41.0828 25.8043 41.4408 25.4561C41.7989 25.1078 42 24.6354 42 24.1429C42 23.6503 41.7989 23.1779 41.4408 22.8297C41.0828 22.4814 40.5972 22.2857 40.0909 22.2857Z" fill="#E55A29"/>
</g>
<defs>
<clipPath id="clip0_417_518">
<rect width="42" height="26" fill="white"/>
</clipPath>
</defs>
</svg>
