<svg width="83" height="83" viewBox="0 0 83 83" fill="none" xmlns="http://www.w3.org/2000/svg">
<path d="M36.3614 6.94623C38.9165 3.49226 44.0835 3.49226 46.6386 6.94623C48.409 9.33935 51.597 10.1936 54.3267 9.00625C58.2665 7.2926 62.7412 9.87607 63.2271 14.1449C63.5637 17.1025 65.8975 19.4363 68.8551 19.7729C73.1239 20.2588 75.7074 24.7335 73.9938 28.6733C72.8064 31.403 73.6607 34.591 76.0538 36.3614C79.5077 38.9165 79.5077 44.0835 76.0538 46.6386C73.6607 48.409 72.8064 51.597 73.9938 54.3267C75.7074 58.2665 73.1239 62.7412 68.8551 63.2271C65.8975 63.5637 63.5637 65.8975 63.2271 68.8551C62.7412 73.1239 58.2665 75.7074 54.3267 73.9938C51.597 72.8064 48.409 73.6607 46.6386 76.0538C44.0835 79.5077 38.9165 79.5077 36.3614 76.0538C34.591 73.6607 31.403 72.8064 28.6733 73.9938C24.7335 75.7074 20.2588 73.1239 19.7729 68.8551C19.4363 65.8975 17.1025 63.5637 14.1449 63.2271C9.87607 62.7412 7.2926 58.2665 9.00625 54.3267C10.1936 51.597 9.33935 48.409 6.94623 46.6386C3.49226 44.0835 3.49226 38.9165 6.94623 36.3614C9.33935 34.591 10.1936 31.403 9.00625 28.6733C7.2926 24.7335 9.87607 20.2588 14.1449 19.7729C17.1025 19.4363 19.4363 17.1025 19.7729 14.1449C20.2588 9.87607 24.7335 7.2926 28.6733 9.00625C31.403 10.1936 34.591 9.33935 36.3614 6.94623Z" fill="#E55A29"/>
<circle cx="42" cy="42" r="12" fill="#D9D9D9"/>
</svg>
