<svg width="83" height="83" viewBox="0 0 83 83" fill="none" xmlns="http://www.w3.org/2000/svg">
<path d="M36.3614 6.94623C38.9165 3.49226 44.0835 3.49226 46.6386 6.94623C48.409 9.33935 51.597 10.1936 54.3267 9.00625C58.2665 7.2926 62.7412 9.87607 63.2271 14.1449C63.5637 17.1025 65.8975 19.4363 68.8551 19.7729C73.1239 20.2588 75.7074 24.7335 73.9938 28.6733C72.8064 31.403 73.6607 34.591 76.0538 36.3614C79.5077 38.9165 79.5077 44.0835 76.0538 46.6386C73.6607 48.409 72.8064 51.597 73.9938 54.3267C75.7074 58.2665 73.1239 62.7412 68.8551 63.2271C65.8975 63.5637 63.5637 65.8975 63.2271 68.8551C62.7412 73.1239 58.2665 75.7074 54.3267 73.9938C51.597 72.8064 48.409 73.6607 46.6386 76.0538C44.0835 79.5077 38.9165 79.5077 36.3614 76.0538C34.591 73.6607 31.403 72.8064 28.6733 73.9938C24.7335 75.7074 20.2588 73.1239 19.7729 68.8551C19.4363 65.8975 17.1025 63.5637 14.1449 63.2271C9.87607 62.7412 7.2926 58.2665 9.00625 54.3267C10.1936 51.597 9.33935 48.409 6.94623 46.6386C3.49226 44.0835 3.49226 38.9165 6.94623 36.3614C9.33935 34.591 10.1936 31.403 9.00625 28.6733C7.2926 24.7335 9.87607 20.2588 14.1449 19.7729C17.1025 19.4363 19.4363 17.1025 19.7729 14.1449C20.2588 9.87607 24.7335 7.2926 28.6733 9.00625C31.403 10.1936 34.591 9.33935 36.3614 6.94623Z" fill="#E55A29"/>
<path d="M46.0433 56.6059C45.5587 56.1064 44.9787 55.7094 44.3377 55.4384C43.6967 55.1673 43.0078 55.0279 42.3119 55.0283H42.2174C39.2323 55.0283 36.8234 57.4466 36.8234 60.4223C36.8234 63.398 39.2323 65.8163 42.2174 65.8163H42.3119C45.297 65.7691 47.6681 63.313 47.6209 60.3278C47.5925 58.9297 47.0257 57.5978 46.0433 56.6059ZM52.382 21.1622C50.0014 18.7156 46.6101 17.4686 42.3119 17.4497H42.2174C38.8166 17.4497 35.9165 18.3755 33.5927 20.2081C32.4874 21.0772 31.505 22.088 30.6642 23.2121C29.8518 24.3079 29.1905 25.5171 28.7182 26.8018C28.5104 27.3781 28.7749 28.011 29.3322 28.2566L34.424 30.4955C35.0096 30.7505 35.6898 30.4955 35.9449 29.9098C35.9543 29.9003 35.9543 29.8814 35.9638 29.872C36.4361 28.7195 37.1918 27.5859 38.212 26.509C39.1189 25.5454 40.432 25.0826 42.2174 25.0826H42.3119C44.1445 25.1015 45.5143 25.5832 46.4967 26.5657C47.4886 27.567 47.9704 28.7762 47.9704 30.2876C47.9704 31.5535 47.5925 32.7154 46.8179 33.8396C45.9677 35.0771 44.7113 36.4468 43.0865 37.9111C42.822 38.1567 42.5575 38.3928 42.3213 38.629C40.876 40.046 39.8746 41.3591 39.2795 42.6344C38.93 43.3806 38.6655 44.3159 38.4766 45.4494C38.2782 46.7814 38.1743 48.1228 38.1743 49.4737C38.1648 50.1161 38.6749 50.6356 39.3079 50.6545H45.4009C46.0338 50.6545 46.5439 50.1539 46.5534 49.5209C46.6006 46.942 46.8935 45.6856 47.1391 45.081C47.3753 44.4953 48.1404 43.3334 50.436 41.1229C52.3347 39.3092 53.7517 37.5332 54.6302 35.8517C55.5371 34.1135 56 32.1581 56 30.042C55.9811 26.6129 54.7719 23.6183 52.382 21.1622Z" fill="#ECECEC"/>
</svg>
