<svg width="83" height="84" viewBox="0 0 83 84" fill="none" xmlns="http://www.w3.org/2000/svg">
<path d="M36.3614 7.53644C38.9165 4.08247 44.0835 4.08247 46.6386 7.53644C48.409 9.92956 51.597 10.7838 54.3267 9.59646C58.2665 7.88281 62.7412 10.4663 63.2271 14.7351C63.5637 17.6928 65.8975 20.0265 68.8551 20.3631C73.1239 20.849 75.7074 25.3237 73.9938 29.2635C72.8064 31.9932 73.6607 35.1812 76.0538 36.9516C79.5077 39.5067 79.5077 44.6737 76.0538 47.2288C73.6607 48.9992 72.8064 52.1872 73.9938 54.9169C75.7074 58.8567 73.1239 63.3314 68.8551 63.8173C65.8975 64.1539 63.5637 66.4877 63.2271 69.4453C62.7412 73.7141 58.2665 76.2976 54.3267 74.584C51.597 73.3966 48.409 74.2509 46.6386 76.644C44.0835 80.0979 38.9165 80.0979 36.3614 76.644C34.591 74.2509 31.403 73.3966 28.6733 74.584C24.7335 76.2976 20.2588 73.7141 19.7729 69.4453C19.4363 66.4877 17.1025 64.1539 14.1449 63.8173C9.87607 63.3314 7.2926 58.8567 9.00625 54.9169C10.1936 52.1872 9.33935 48.9992 6.94623 47.2288C3.49226 44.6737 3.49226 39.5067 6.94623 36.9516C9.33935 35.1812 10.1936 31.9932 9.00625 29.2635C7.2926 25.3237 9.87607 20.849 14.1449 20.3631C17.1025 20.0265 19.4363 17.6928 19.7729 14.7351C20.2588 10.4663 24.7335 7.88281 28.6733 9.59646C31.403 10.7838 34.591 9.92956 36.3614 7.53644Z" fill="#E55A29"/>
<path d="M60.9611 30.3125C60.9463 30.1382 60.8832 29.9718 60.7791 29.8329C60.6749 29.694 60.5342 29.5884 60.3733 29.5284C60.2125 29.4685 60.0382 29.4567 59.871 29.4945C59.7038 29.5322 59.5507 29.618 59.4296 29.7417L54.3696 34.9115L48.7602 33.0967L46.984 27.3652L52.0441 22.1949C52.1652 22.0712 52.2492 21.9148 52.2862 21.744C52.3233 21.5732 52.3118 21.3952 52.2532 21.2308C52.1944 21.0663 52.0909 20.9223 51.9548 20.8159C51.8187 20.7095 51.6556 20.6449 51.4849 20.6299C48.4118 20.3594 45.4008 21.4805 43.2238 23.7052C40.2423 26.7519 39.4527 31.2011 40.8509 34.9934C40.6947 35.1276 40.5437 35.2681 40.3985 35.4146L23.5081 51.6998C23.5021 51.7057 23.4962 51.7122 23.4898 51.718C21.5034 53.7478 21.5034 57.0503 23.4898 59.0803C25.4765 61.1099 28.685 61.0852 30.671 59.0555C30.6795 59.0474 30.6876 59.039 30.6953 59.0301L46.4942 41.6374C46.6364 41.4907 46.7712 41.3368 46.898 41.1762C50.6105 42.6074 54.9676 41.8025 57.9518 38.7538C60.1282 36.5289 61.2262 33.452 60.9611 30.3125ZM28.1257 56.8877C27.3938 57.6355 26.2083 57.635 25.4764 56.8877C24.7448 56.1406 24.7448 54.9284 25.4764 54.181C26.2083 53.4338 27.3938 53.4338 28.1257 54.181C28.8574 54.9284 28.8574 56.1406 28.1257 56.8877Z" fill="#ECECEC"/>
</svg>
