<svg width="140" height="139" viewBox="0 0 140 139" fill="none" xmlns="http://www.w3.org/2000/svg">
<path d="M98.5044 76.8801C91.292 91.7464 76.0186 102.365 58.1996 102.365C34.0167 102.365 13.6521 82.4018 13.6521 57.7662C13.6521 33.5554 33.1681 13.1673 58.1996 13.1673C70.0789 13.1673 81.534 17.8396 90.0192 26.3346C95.1104 31.4316 98.5044 37.3781 100.626 43.7494L110.384 33.9801C107.414 27.6089 103.596 22.0871 98.5044 16.9901C87.4736 6.37128 73.0487 0 57.7753 0C26.38 0.424752 0.5 26.3346 0.5 57.7662C0.5 89.6226 26.38 115.108 57.7753 115.108C87.4736 115.108 111.232 92.5959 114.626 64.987C108.262 70.9335 105.717 76.8801 98.5044 76.8801ZM134.567 134.222C128.203 140.593 117.596 140.593 110.808 134.222L91.292 114.683C95.9589 111.71 100.626 108.312 104.444 104.489C108.687 100.241 112.081 95.9939 115.051 90.8969L134.567 110.435C140.931 116.807 141.355 127.426 134.567 134.222Z" fill="#E55A29"/>
<path d="M130.748 37.3785L122.687 45.4488L100.626 67.1111C98.9287 68.8101 96.3831 68.8101 94.6861 67.1111L80.6855 53.0943L58.6239 75.1814C56.9268 76.8804 54.3812 76.8804 52.6842 75.1814L42.9262 65.4121L28.9255 79.4289C27.2285 77.3052 25.5315 74.3319 24.2587 71.7834L39.9563 56.9171C41.6534 55.2181 44.199 55.2181 45.896 56.9171L55.654 66.6864L77.7156 44.5993C79.4127 42.9003 81.9583 42.9003 83.6553 44.5993L93.8376 54.7933L97.6559 58.6161L120.142 36.1042L124.809 31.432C126.506 29.733 129.051 29.733 130.748 31.432C132.445 33.131 132.445 35.6795 130.748 37.3785Z" fill="#E55A29"/>
</svg>
