<svg width="75" height="75" viewBox="0 0 75 75" fill="none" xmlns="http://www.w3.org/2000/svg">
<path d="M32.3614 2.94623C34.9165 -0.507736 40.0835 -0.507736 42.6386 2.94623C44.409 5.33935 47.597 6.19357 50.3267 5.00625C54.2665 3.2926 58.7412 5.87607 59.2271 10.1449C59.5637 13.1025 61.8975 15.4363 64.8551 15.7729C69.1239 16.2588 71.7074 20.7335 69.9938 24.6733C68.8064 27.403 69.6607 30.591 72.0538 32.3614C75.5077 34.9165 75.5077 40.0835 72.0538 42.6386C69.6607 44.409 68.8064 47.597 69.9938 50.3267C71.7074 54.2665 69.1239 58.7412 64.8551 59.2271C61.8975 59.5637 59.5637 61.8975 59.2271 64.8551C58.7412 69.1239 54.2665 71.7074 50.3267 69.9938C47.597 68.8064 44.409 69.6607 42.6386 72.0538C40.0835 75.5077 34.9165 75.5077 32.3614 72.0538C30.591 69.6607 27.403 68.8064 24.6733 69.9938C20.7335 71.7074 16.2588 69.1239 15.7729 64.8551C15.4363 61.8975 13.1025 59.5637 10.1449 59.2271C5.87607 58.7412 3.2926 54.2665 5.00625 50.3267C6.19357 47.597 5.33935 44.409 2.94623 42.6386C-0.507736 40.0835 -0.507736 34.9165 2.94623 32.3614C5.33935 30.591 6.19357 27.403 5.00625 24.6733C3.2926 20.7335 5.87607 16.2588 10.1449 15.7729C13.1025 15.4363 15.4363 13.1025 15.7729 10.1449C16.2588 5.87607 20.7335 3.2926 24.6733 5.00625C27.403 6.19357 30.591 5.33935 32.3614 2.94623Z" fill="#E55A29"/>
</svg>
