<svg width="50" height="50" viewBox="0 0 50 50" fill="none" xmlns="http://www.w3.org/2000/svg">
<path d="M25.0043 50.0085C38.8137 50.0085 50.0085 38.8137 50.0085 25.0043C50.0085 11.1948 38.8137 0 25.0043 0C11.1948 0 0 11.1948 0 25.0043C0 38.8137 11.1948 50.0085 25.0043 50.0085Z" fill="url(#paint0_linear_397_345)"/>
<path fill-rule="evenodd" clip-rule="evenodd" d="M11.3184 24.7403C18.6077 21.5645 23.4683 19.4708 25.9003 18.4593C32.8443 15.5711 34.2872 15.0694 35.2276 15.0528C35.4344 15.0491 35.8969 15.1004 36.1965 15.3435C36.6409 15.7041 36.6434 16.4869 36.5941 17.0049C36.2178 20.9587 34.5896 30.5534 33.7612 34.9817C33.4107 36.8555 32.7205 37.4838 32.0524 37.5453C30.6004 37.6789 29.4978 36.5856 28.0914 35.6638C25.8907 34.2212 24.6475 33.3232 22.5112 31.9155C20.0426 30.2887 21.6429 29.3946 23.0498 27.9333C23.418 27.5509 29.8157 21.7316 29.9396 21.2037C29.9551 21.1377 29.9694 20.8915 29.8232 20.7616C29.677 20.6317 29.4613 20.6761 29.3056 20.7114C29.0848 20.7615 25.5692 23.0853 18.7587 27.6825C17.7607 28.3678 16.8569 28.7017 16.0471 28.6842C15.1542 28.6649 13.4369 28.1794 12.1603 27.7644C10.5944 27.2554 9.34983 26.9862 9.45824 26.1218C9.5147 25.6715 10.1347 25.211 11.3184 24.7403Z" fill="white"/>
<defs>
<linearGradient id="paint0_linear_397_345" x1="47.5" y1="-9" x2="11.5" y2="56.5" gradientUnits="userSpaceOnUse">
<stop stop-color="#090A9C"/>
<stop offset="1" stop-color="#3233D6"/>
</linearGradient>
</defs>
</svg>
