<svg width="50" height="50" viewBox="0 0 50 50" fill="none" xmlns="http://www.w3.org/2000/svg">
<path d="M25.0105 0H24.998C11.2113 0 0 11.2144 0 25.0043C0 30.4739 1.7628 35.5435 4.76019 39.6599L1.64403 48.949L11.255 45.8766C15.2088 48.4958 19.9253 50.0085 25.0105 50.0085C38.7972 50.0085 50.0085 38.791 50.0085 25.0043C50.0085 11.2175 38.7972 0 25.0105 0Z" fill="url(#paint0_linear_397_342)"/>
<path d="M39.5599 35.3091C38.9566 37.0125 36.5625 38.4253 34.6528 38.8378C33.3463 39.116 31.6398 39.3379 25.8951 36.9563C18.5469 33.912 13.8149 26.4451 13.4461 25.9607C13.0929 25.4762 10.4768 22.0069 10.4768 18.4187C10.4768 14.8306 12.299 13.0835 13.0335 12.3333C13.6367 11.7176 14.6338 11.4363 15.5902 11.4363C15.8996 11.4363 16.1778 11.4519 16.4278 11.4644C17.1623 11.4957 17.5311 11.5395 18.0156 12.699C18.6188 14.1524 20.0878 17.7405 20.2628 18.1093C20.441 18.4781 20.6192 18.9782 20.3691 19.4627C20.1347 19.9628 19.9284 20.1847 19.5596 20.6097C19.1908 21.0348 18.8407 21.3599 18.4719 21.8162C18.1344 22.2131 17.753 22.6382 18.1781 23.3727C18.6032 24.0916 20.0722 26.4889 22.2351 28.4142C25.0262 30.899 27.289 31.6929 28.0986 32.0304C28.7018 32.2805 29.4207 32.2211 29.8614 31.7523C30.4208 31.149 31.1116 30.1489 31.8148 29.1643C32.3149 28.458 32.9463 28.3704 33.6089 28.6205C34.284 28.8549 37.8565 30.6208 38.591 30.9865C39.3255 31.3553 39.8099 31.5304 39.9881 31.8398C40.1631 32.1492 40.1631 33.6026 39.5599 35.3091Z" fill="#FAFAFA"/>
<defs>
<linearGradient id="paint0_linear_397_342" x1="4" y1="-15.5" x2="50" y2="52.5" gradientUnits="userSpaceOnUse">
<stop stop-color="#090A9C"/>
<stop offset="0.885" stop-color="#3233D6"/>
</linearGradient>
</defs>
</svg>
