<svg width="132" height="132" viewBox="0 0 132 132" fill="none" xmlns="http://www.w3.org/2000/svg">
<path d="M124.12 85.8237C117.33 79.0285 107.908 76.1498 95.8077 79.3926L52.6593 36.2017L53.2296 34.0454C55.7148 24.7213 53.0296 14.6989 46.2241 7.89365C39.2949 0.95926 29.4441 -1.58509 20.1277 0.973956C19.4749 1.15316 18.8806 1.50063 18.4042 1.98162C17.9278 2.46261 17.5861 3.06025 17.4131 3.71476C17.2408 4.36914 17.2432 5.0573 17.42 5.71048C17.5969 6.36366 17.942 6.95901 18.421 7.43706L28.8104 17.8261C31.8478 20.8709 31.8181 25.7472 28.8179 28.7553C25.8413 31.7398 20.838 31.7351 17.8734 28.7628L7.48189 18.3709C7.00307 17.8919 6.40678 17.5471 5.75276 17.371C5.09874 17.195 4.40994 17.1938 3.75534 17.3677C3.101 17.5418 2.50386 17.8847 2.02369 18.3621C1.54353 18.8395 1.19719 19.4346 1.01935 20.0879C-1.5024 29.3016 0.978353 39.2132 7.94081 46.1755C14.7282 52.9675 24.1384 55.8566 36.2459 52.6069L79.3977 95.7977C76.1775 107.894 78.9553 117.225 85.8368 124.106C92.7747 131.049 102.63 133.574 111.926 131.024C112.579 130.845 113.174 130.497 113.65 130.016C114.127 129.535 114.468 128.937 114.642 128.283C114.814 127.628 114.812 126.94 114.635 126.287C114.458 125.634 114.113 125.038 113.634 124.56L103.247 114.173C100.209 111.129 100.239 106.252 103.239 103.244C106.253 100.246 111.245 100.294 114.184 103.24L124.576 113.629C125.055 114.108 125.651 114.453 126.305 114.629C126.959 114.805 127.648 114.806 128.302 114.632C128.956 114.458 129.553 114.115 130.034 113.638C130.514 113.16 130.86 112.565 131.038 111.912C133.56 102.7 131.079 92.7859 124.12 85.8237Z" fill="#E55A29"/>
<path d="M41.3913 68.7287L4.52495 105.599C-1.50832 111.632 -1.50832 121.442 4.52495 127.475C10.5582 133.508 20.3693 133.508 26.4023 127.475L63.2679 90.6065L41.3913 68.7287ZM22.7691 115.474C21.2583 116.985 18.8116 116.985 17.3008 115.474C15.7902 113.963 15.7902 111.516 17.3008 110.006L40.7573 86.5454C42.2679 85.0349 44.7154 85.0349 46.2257 86.5454C47.7363 88.0559 47.7363 90.5031 46.2257 92.0136L22.7691 115.474ZM130.867 7.79962L124.2 1.13284C123.59 0.523034 122.794 0.13452 121.938 0.029043C121.082 -0.0764341 120.216 0.107178 119.476 0.550697L98.9671 12.8543C96.8091 14.1488 96.4428 17.1257 98.2217 18.9049L99.8542 20.5368L73.8195 46.4643L84.7601 57.4046L110.795 31.4771L113.094 33.7771C114.874 35.5557 117.851 35.1896 119.145 33.0317L131.449 12.5235C131.893 11.7839 132.076 10.9173 131.971 10.0614C131.865 9.20551 131.477 8.40943 130.867 7.79962Z" fill="#E55A29"/>
</svg>
