<svg width="189" height="189" viewBox="0 0 189 189" fill="none" xmlns="http://www.w3.org/2000/svg">
<path d="M153.575 54.1688C153.575 53.6087 153.505 53.0508 153.366 52.5083C151.195 44.0593 147.223 36.1794 141.723 29.4082C136.223 22.637 129.324 17.1344 121.5 13.2773V27C121.5 28.7902 120.789 30.5071 119.523 31.773C118.257 33.0388 116.54 33.75 114.75 33.75C112.96 33.75 111.243 33.0388 109.977 31.773C108.711 30.5071 108 28.7902 108 27V6.75C108 4.95979 107.289 3.2429 106.023 1.97703C104.757 0.711158 103.04 0 101.25 0H87.7501C85.9599 0 84.243 0.711158 82.9772 1.97703C81.7113 3.2429 81.0002 4.95979 81.0002 6.75V27C81.0002 28.7902 80.289 30.5071 79.0232 31.773C77.7573 33.0388 76.0404 33.75 74.2502 33.75C72.46 33.75 70.7432 33.0388 69.4773 31.773C68.2115 30.5071 67.5003 28.7902 67.5003 27V13.2773C59.6749 17.1348 52.7757 22.6383 47.2756 29.4107C41.7754 36.1832 37.8041 44.0646 35.6339 52.515C35.4978 53.0574 35.4432 53.617 35.4719 54.1755C32.9682 54.5889 30.7117 55.9293 29.1509 57.9301C27.5901 59.9309 26.8392 62.4458 27.0476 64.9749C27.2559 67.504 28.4082 69.862 30.2754 71.5805C32.1426 73.2989 34.588 74.2519 37.1256 74.25H151.874C154.424 74.275 156.888 73.3355 158.774 71.6198C160.66 69.9041 161.827 67.5389 162.042 64.9986C162.257 62.4583 161.504 59.9305 159.934 57.922C158.364 55.9136 156.093 54.5729 153.575 54.1688ZM141.75 87.75H47.2505V94.5C47.2505 107.393 52.448 119.07 60.8381 127.602C60.8179 127.825 60.7504 128.027 60.7504 128.25V139.617L94.3313 154.535L128.25 137.585V128.25C128.25 128.027 128.182 127.825 128.162 127.602C136.871 118.786 141.753 106.892 141.75 94.5V87.75Z" fill="#E55A29"/>
<path d="M54.0004 189H135V149.296L97.5172 168.041C96.6264 168.486 95.6482 168.728 94.6527 168.75C93.6573 168.772 92.6693 168.574 91.7595 168.169L54.0004 151.382V189ZM40.5006 149.256C24.3986 154.174 10.4916 164.507 1.135 178.504C0.456774 179.52 0.0672391 180.702 0.00795039 181.922C-0.0513383 183.143 0.221843 184.357 0.798352 185.434C1.37486 186.512 2.23307 187.413 3.28141 188.041C4.32976 188.668 5.52891 189 6.75094 189H40.5006V149.256ZM187.865 178.504C178.508 164.507 164.601 154.174 148.499 149.256V189H182.249C183.471 189 184.67 188.668 185.719 188.041C186.767 187.413 187.625 186.512 188.202 185.434C188.778 184.357 189.051 183.143 188.992 181.922C188.933 180.702 188.543 179.52 187.865 178.504Z" fill="#E55A29"/>
</svg>
