<svg width="83" height="83" viewBox="0 0 83 83" fill="none" xmlns="http://www.w3.org/2000/svg">
<path d="M36.3614 6.94623C38.9165 3.49226 44.0835 3.49226 46.6386 6.94623C48.409 9.33935 51.597 10.1936 54.3267 9.00625C58.2665 7.2926 62.7412 9.87607 63.2271 14.1449C63.5637 17.1025 65.8975 19.4363 68.8551 19.7729C73.1239 20.2588 75.7074 24.7335 73.9938 28.6733C72.8064 31.403 73.6607 34.591 76.0538 36.3614C79.5077 38.9165 79.5077 44.0835 76.0538 46.6386C73.6607 48.409 72.8064 51.597 73.9938 54.3267C75.7074 58.2665 73.1239 62.7412 68.8551 63.2271C65.8975 63.5637 63.5637 65.8975 63.2271 68.8551C62.7412 73.1239 58.2665 75.7074 54.3267 73.9938C51.597 72.8064 48.409 73.6607 46.6386 76.0538C44.0835 79.5077 38.9165 79.5077 36.3614 76.0538C34.591 73.6607 31.403 72.8064 28.6733 73.9938C24.7335 75.7074 20.2588 73.1239 19.7729 68.8551C19.4363 65.8975 17.1025 63.5637 14.1449 63.2271C9.87607 62.7412 7.2926 58.2665 9.00625 54.3267C10.1936 51.597 9.33935 48.409 6.94623 46.6386C3.49226 44.0835 3.49226 38.9165 6.94623 36.3614C9.33935 34.591 10.1936 31.403 9.00625 28.6733C7.2926 24.7335 9.87607 20.2588 14.1449 19.7729C17.1025 19.4363 19.4363 17.1025 19.7729 14.1449C20.2588 9.87607 24.7335 7.2926 28.6733 9.00625C31.403 10.1936 34.591 9.33935 36.3614 6.94623Z" fill="#E55A29"/>
<path d="M49.3123 53.5542C48.1686 53.5542 47.2379 54.485 47.2379 55.6286V79.0002H51.3862V55.6286C51.3862 54.485 50.456 53.5542 49.3123 53.5542ZM34.6876 53.5542C33.5439 53.5542 32.6136 54.485 32.6136 55.6286V79.0002H36.7619V55.6286C36.7619 54.485 35.8313 53.5542 34.6876 53.5542Z" fill="#ECECEC"/>
<path d="M25.3013 79H29.4496V55.6283C29.4496 52.74 31.7992 50.3899 34.6876 50.3899C37.5761 50.3899 39.9261 52.74 39.9261 55.6283V79H44.0744V55.6283C44.0744 52.74 46.4239 50.3899 49.3124 50.3899C52.2008 50.3899 54.5508 52.74 54.5508 55.6283V79H58.6991V45.6027H25.3013V79ZM60.2807 25H23.7193C18.9114 25 15 28.9114 15 33.7193C15 38.5272 18.9114 42.4386 23.7193 42.4386H24.4819C27.725 42.4386 30.3634 39.7998 30.3634 36.5566C30.3634 34.1367 28.395 32.1678 25.9746 32.1678C24.2132 32.1678 22.7799 33.6011 22.7799 35.3627H19.6158C19.6158 31.8563 22.4685 29.0037 25.9746 29.0037C30.1393 29.0037 33.5275 32.3919 33.5275 36.5566C33.5275 38.8011 32.7039 40.8557 31.346 42.4386H52.6545C51.296 40.8557 50.4725 38.8011 50.4725 36.5566C50.4725 32.3923 53.8607 29.0037 58.0255 29.0037C61.5315 29.0037 64.3842 31.8563 64.3842 35.3627H61.2201C61.2201 33.6011 59.7871 32.1678 58.0255 32.1678C55.6055 32.1678 53.6366 34.1367 53.6366 36.5566C53.6366 39.7998 56.275 42.4386 59.5181 42.4386H60.2807C65.0886 42.4386 69 38.5272 69 33.7193C69 28.9114 65.0886 25 60.2807 25Z" fill="#ECECEC"/>
</svg>
