<svg width="83" height="83" viewBox="0 0 83 83" fill="none" xmlns="http://www.w3.org/2000/svg">
<path d="M36.3614 6.94623C38.9165 3.49226 44.0835 3.49226 46.6386 6.94623C48.409 9.33935 51.597 10.1936 54.3267 9.00625C58.2665 7.2926 62.7412 9.87607 63.2271 14.1449C63.5637 17.1025 65.8975 19.4363 68.8551 19.7729C73.1239 20.2588 75.7074 24.7335 73.9938 28.6733C72.8064 31.403 73.6607 34.591 76.0538 36.3614C79.5077 38.9165 79.5077 44.0835 76.0538 46.6386C73.6607 48.409 72.8064 51.597 73.9938 54.3267C75.7074 58.2665 73.1239 62.7412 68.8551 63.2271C65.8975 63.5637 63.5637 65.8975 63.2271 68.8551C62.7412 73.1239 58.2665 75.7074 54.3267 73.9938C51.597 72.8064 48.409 73.6607 46.6386 76.0538C44.0835 79.5077 38.9165 79.5077 36.3614 76.0538C34.591 73.6607 31.403 72.8064 28.6733 73.9938C24.7335 75.7074 20.2588 73.1239 19.7729 68.8551C19.4363 65.8975 17.1025 63.5637 14.1449 63.2271C9.87607 62.7412 7.2926 58.2665 9.00625 54.3267C10.1936 51.597 9.33935 48.409 6.94623 46.6386C3.49226 44.0835 3.49226 38.9165 6.94623 36.3614C9.33935 34.591 10.1936 31.403 9.00625 28.6733C7.2926 24.7335 9.87607 20.2588 14.1449 19.7729C17.1025 19.4363 19.4363 17.1025 19.7729 14.1449C20.2588 9.87607 24.7335 7.2926 28.6733 9.00625C31.403 10.1936 34.591 9.33935 36.3614 6.94623Z" fill="#E55A29"/>
<path d="M33.2677 57.742C33.2393 58.0249 33.2637 58.3204 33.3669 58.6132C33.6187 59.3191 34.2096 59.8942 34.9096 60.111C35.5601 60.3166 36.2072 60.1798 36.4035 59.9662L37.7606 58.5101C38.1532 58.0903 38.2523 57.4194 38.0217 56.7683C37.4539 55.6803 36.693 55.2877 35.7187 55.1118L33.2677 57.742ZM31.4526 50.461L29.0809 53.0045C28.599 53.5287 28.4609 54.3345 28.7299 55.1065C29.0155 55.9222 29.697 56.5859 30.5126 56.8337C31.2847 57.0651 32.0594 56.8853 32.5446 56.3691L34.7404 54.0139C35.2256 53.491 35.3605 52.6892 35.0914 51.9172C34.8059 51.0975 34.1204 50.4365 33.3087 50.19C32.6609 49.9831 31.9008 49.9752 31.4526 50.461ZM26.7509 46.2755L24.561 48.6267C24.0784 49.1469 23.9436 49.9553 24.21 50.73C24.4955 51.5431 25.177 52.2067 25.9927 52.4546C26.7634 52.6892 27.5461 52.5061 27.79 52.2477L30.2211 49.6387C30.7063 49.1145 30.8412 48.3088 30.5721 47.538C30.2853 46.7197 29.6038 46.0587 28.7881 45.8135C28.0378 45.5689 27.2076 45.7864 26.7509 46.2755ZM22.4669 41.6406L20.0397 44.2509C19.5545 44.7737 19.4197 45.5755 19.6887 46.3436C19.9716 47.1659 20.6571 47.8269 21.4727 48.0748C22.2435 48.3048 23.0248 48.1263 23.2661 47.8646L25.6999 45.2556V45.2529C26.185 44.7367 26.3199 43.9336 26.0509 43.1629C25.7693 42.3406 25.0838 41.6796 24.2681 41.4343C23.6448 41.2195 22.8906 41.1825 22.4669 41.6406ZM53.9783 26.0732C52.4084 26.9511 50.2264 27.1084 48.1013 27.2611C46.4938 27.3708 44.8353 27.4871 43.6435 27.9274L37.0169 30.3724C36.9725 30.3896 36.9261 30.4014 36.8788 30.4074C36.5589 30.4577 36.2627 30.5007 35.997 30.5377C34.3835 30.7651 34.1971 30.8345 34.0113 31.3124C33.8421 31.7539 34.0279 32.3905 34.4866 32.9312C34.8607 33.3754 36.3249 34.7621 39.3371 34.0489L43.1107 33.5505C45.224 33.2782 46.9181 34.6557 48.2712 35.7675L58.4196 43.886L58.4275 43.882C60.4337 43.0426 62.5238 41.9506 64.3006 39.8102L53.9783 26.0732Z" fill="#ECECEC"/>
<path d="M40.0146 25.5797C39.4131 25.6352 38.7237 25.7112 38.0005 25.7866C34.0008 26.2136 31.7831 26.3815 30.6548 26.1726L20.271 39.6882C20.6362 40.0274 20.9567 40.4116 21.2249 40.8317C22.0928 39.9433 23.4042 39.6261 24.6813 40.0121C25.9345 40.3902 26.9809 41.4061 27.4185 42.6667C27.6042 43.2001 27.6624 43.7474 27.6148 44.2716C28.146 44.1953 28.6876 44.2364 29.2012 44.3919C30.4512 44.7673 31.5015 45.7859 31.9358 47.0465C32.1242 47.5773 32.1837 48.1233 32.1387 48.6474C32.6702 48.5709 33.2121 48.6133 33.7251 48.7717C34.9724 49.1498 36.0182 50.1658 36.4557 51.4197C36.7307 52.2149 36.7413 53.0332 36.5179 53.7669C36.6455 53.7914 36.7763 53.8224 36.9065 53.8634C38.0256 54.2105 38.9762 55.1299 39.3853 56.2635C39.7753 57.3608 39.6061 58.5136 38.9656 59.3412L40.8078 60.8145C41.2586 61.1722 41.9156 61.2112 42.5291 60.9137C43.194 60.5911 43.6964 59.9361 43.8445 59.203C43.9017 58.912 43.892 58.6119 43.816 58.3252L41.4794 56.4559C41.3281 56.3325 41.2306 56.1552 41.2074 55.9614C41.1843 55.7676 41.2372 55.5724 41.3551 55.4168C41.4129 55.3406 41.4854 55.2768 41.5683 55.229C41.6511 55.1813 41.7427 55.1506 41.8376 55.1387C41.9325 55.1268 42.0288 55.134 42.1208 55.1598C42.2129 55.1857 42.2989 55.2297 42.3737 55.2892L45.183 57.5406C45.4619 57.764 46.2611 57.8235 46.9941 57.4785C47.7649 57.1103 48.3472 56.3514 48.5085 55.5047C48.6632 54.7042 48.4153 53.9282 47.864 53.484L45.3231 51.4508C45.1709 51.3286 45.0726 51.1517 45.0494 50.9579C45.0261 50.7641 45.0798 50.569 45.1989 50.4143C45.2558 50.3374 45.3278 50.2728 45.4104 50.2245C45.493 50.1762 45.5846 50.1451 45.6795 50.1332C45.7745 50.1213 45.8709 50.1288 45.9629 50.1551C46.0549 50.1815 46.1406 50.2263 46.2148 50.2867L49.9085 53.2408C50.4638 53.6823 51.2616 53.7431 51.9986 53.3994C52.7627 53.0339 53.3451 52.2764 53.5103 51.4204C53.665 50.6199 53.4171 49.8465 52.8599 49.3983L49.1649 46.4483C49.0124 46.3246 48.9141 46.1463 48.8909 45.9513C48.8677 45.7563 48.9214 45.5599 49.0406 45.4039C49.099 45.3282 49.1719 45.2649 49.255 45.2176C49.3382 45.1704 49.4299 45.1402 49.5248 45.1287C49.6197 45.1173 49.716 45.1248 49.808 45.151C49.9 45.1771 49.9858 45.2213 50.0605 45.2809C50.0605 45.2809 55.6711 49.7672 55.6751 49.7672C55.9541 49.9866 56.7492 50.0488 57.479 49.6998C58.251 49.3395 58.8294 48.582 58.9973 47.7286C59.1493 46.9268 58.9015 46.1482 58.3469 45.708L47.3656 36.9199C46.1057 35.8867 44.8042 34.8166 43.2925 35.0195L39.5949 35.502C37.1022 36.1009 34.751 35.5087 33.3913 33.9011C32.5717 32.9327 32.2927 31.735 32.6609 30.7719C33.1772 29.436 34.166 29.2979 35.798 29.0678C36.042 29.0368 36.3044 28.9984 36.5932 28.9528L43.1517 26.5335C43.5781 26.3749 44.05 26.2652 44.5385 26.168C42.8523 25.5156 41.6301 25.4766 40.0146 25.5797ZM25.762 23.0183C24.5676 22.9278 23.4769 23.828 21.907 25.8725L17.8921 31.1024C16.4399 32.9889 15.8959 34.1622 16.0162 35.1563C16.1127 35.9733 16.6811 36.7751 17.245 37.2273L19.1493 38.7482L29.4907 25.2882L28.1522 24.2167C27.2321 23.483 26.4785 23.0738 25.762 23.0183ZM58.9233 23.0044C58.2068 23.0494 57.4466 23.4499 56.5192 24.1731L55.1661 25.2228L65.3641 38.7925L66.6822 37.7673C67.8224 36.8829 68.4041 36.0917 68.5105 35.2753C68.642 34.2838 68.1152 33.1013 66.6861 31.1903L62.7366 25.9102C61.1978 23.8446 60.121 22.9278 58.9233 23.0044Z" fill="#ECECEC"/>
</svg>
