<svg width="150" height="181" viewBox="0 0 150 181" fill="none" xmlns="http://www.w3.org/2000/svg">
<path d="M27.7834 175.744C28.0748 176.832 27.4234 177.96 26.3359 178.252L18.0939 180.46C17.0063 180.751 15.8779 180.1 15.5865 179.012L0.815917 123.886C0.524517 122.798 1.17588 121.67 2.26344 121.379L10.5058 119.17C11.593 118.879 12.7214 119.531 13.0132 120.618L27.7834 175.744ZM107.366 44.4442C105.709 43.0266 103.217 43.2203 101.799 44.8771L89.6982 58.9946L84.2214 52.8952C82.7611 51.2726 80.2618 51.141 78.6392 52.6013C77.0166 54.0615 76.8849 56.5609 78.3452 58.1834L86.8261 67.6283C88.4804 69.4664 91.3926 69.338 92.893 67.4003L107.799 50.0107C109.217 48.3542 109.023 45.8618 107.366 44.4442ZM149.253 62.8579C149.253 64.7507 147.704 66.2996 145.812 66.2996H139.543C135.752 66.2996 132.515 68.4627 131.064 71.9653C129.613 75.468 130.372 79.2865 133.053 81.9674L137.486 86.3997C138.824 87.7382 138.824 89.9286 137.486 91.2671L128.091 100.662C126.752 102.001 124.562 102.001 123.224 100.662L118.792 96.23C116.111 93.549 112.292 92.7897 108.789 94.2405C105.287 95.6913 103.124 98.9285 103.124 102.72V108.988C103.124 110.881 101.575 112.43 99.682 112.43H86.3954C84.5022 112.43 82.9537 110.881 82.9537 108.988V102.72C82.9537 98.9288 80.7906 95.6917 77.2879 94.2405C73.7853 92.7897 69.9668 93.549 67.2859 96.23L62.8536 100.662C61.5151 102.001 59.3247 102.001 57.9866 100.662L48.5914 91.2671C47.2529 89.9286 47.2529 87.7382 48.5914 86.3997L53.0237 81.9674C55.7046 79.2865 56.4643 75.4684 55.0135 71.9653C53.5627 68.4627 50.3256 66.2996 46.5341 66.2996H40.2659C38.3727 66.2996 36.8241 64.7511 36.8241 62.8579V49.5713C36.8241 47.6784 38.3727 46.1295 40.2659 46.1295H46.5341C50.3252 46.1295 53.5623 43.9665 55.0135 40.4638C56.4643 36.9612 55.7046 33.1427 53.0237 30.4617L48.5914 26.0295C47.2529 24.691 47.2529 22.5006 48.5914 21.1621L57.9866 11.7669C59.3251 10.4284 61.5155 10.4284 62.8536 11.7669L67.2859 16.1992C69.9668 18.8798 73.7853 19.6394 77.2879 18.1886C80.7906 16.7378 82.9537 13.5007 82.9537 9.70922V3.44174C82.9537 1.54891 84.5026 0 86.3954 0H99.682C101.575 0 103.124 1.54854 103.124 3.44174V9.70995C103.124 13.5011 105.287 16.7382 108.789 18.1894C112.292 19.6402 116.111 18.8805 118.792 16.1999L123.224 11.7676C124.562 10.4291 126.752 10.4291 128.091 11.7676L137.486 21.1628C138.824 22.5013 138.824 24.6914 137.486 26.0302L133.054 30.4617C130.373 33.1427 129.613 36.9612 131.064 40.4638C132.515 43.9665 135.752 46.1295 139.544 46.1295H145.812C147.705 46.1295 149.254 47.6784 149.254 49.5713L149.253 62.8579ZM121.492 56.2144C121.492 40.5007 108.753 27.7618 93.0393 27.7618C77.3255 27.7618 64.5867 40.5007 64.5867 56.2144C64.5867 71.9281 77.3255 84.667 93.0393 84.667C108.753 84.667 121.492 71.9281 121.492 56.2144ZM135.664 124.348L101.852 143.87C100.016 146.345 97.3719 148.241 94.1888 149.094L77.1577 153.657C73.4782 154.643 69.6054 154.73 65.9175 153.735C65.2175 153.548 64.6205 153.091 64.2578 152.463C63.8951 151.836 63.7964 151.091 63.9834 150.391C64.1705 149.691 64.6279 149.094 65.2551 148.731C65.8823 148.368 66.6278 148.27 67.3278 148.457C70.1656 149.222 72.9184 149.137 75.7471 148.379L92.7781 143.815C97.3807 142.582 100.147 137.816 98.9085 133.192C97.6761 128.593 92.8828 125.83 88.2846 127.062L76.638 130.182C73.7426 130.958 70.8895 131.161 68.0904 130.792C65.3551 130.433 62.7551 129.427 60.1435 128.071C55.2137 125.511 49.3842 121.866 44.4563 119.021C40.4675 116.718 35.6826 118.514 29.4253 120.863C26.4825 121.967 23.2556 123.179 19.6326 124.188L31.8947 169.951C43.2189 168.272 51.1334 170.529 61.1384 173.382C67.4861 175.192 72.1412 177.171 78.3875 173.565C99.7984 161.203 121.336 148.944 142.662 136.461C145.97 134.551 147.123 130.215 145.213 126.911C143.3 123.598 138.977 122.432 135.664 124.348Z" fill="#E55A29"/>
</svg>
