<svg width="121" height="150" viewBox="0 0 121 150" fill="none" xmlns="http://www.w3.org/2000/svg">
<path d="M94.4578 65.5737C80.254 65.5737 68.6967 77.1311 68.6967 91.3348C68.6967 105.539 80.254 117.096 94.4578 117.096C108.661 117.096 120.219 105.539 120.219 91.3348C120.219 77.1311 108.661 65.5737 94.4578 65.5737ZM105.38 87.2013C97.8913 98.4358 100.015 95.2508 96.0122 101.253C94.5746 103.409 91.6638 103.981 89.5163 102.55L82.4905 97.8659C80.3389 96.4314 79.7593 93.5245 81.1937 91.37C82.6281 89.2183 85.535 88.6387 87.6896 90.0731L90.8161 92.1574C98.2862 80.954 97.8846 81.264 99.1416 80.5474C103.408 78.0796 108.121 83.0837 105.38 87.2013ZM73.3805 119.42V145.199C73.3805 148.788 77.2675 151.049 80.3887 149.265L94.4578 141.226L108.527 149.265C111.635 151.047 115.535 148.798 115.535 145.199V119.42C103.056 128.809 85.8773 128.823 73.3805 119.42ZM103.825 57.4765V10.1727C103.825 4.56381 99.2616 0 93.6527 0H10.9537C5.34482 0 0.781006 4.56381 0.781006 10.1727V118.633C0.781006 124.242 5.34482 128.806 10.9537 128.806H64.0128C64.0128 108.65 63.9815 109.897 64.086 108.969C48.4063 82.0881 73.3737 49.0199 103.825 57.4765ZM28.884 23.4192H68.6967C71.2845 23.4192 73.3805 25.5152 73.3805 28.103C73.3805 30.6908 71.2845 32.7869 68.6967 32.7869H28.884C26.2962 32.7869 24.2002 30.6908 24.2002 28.103C24.2002 25.5152 26.2962 23.4192 28.884 23.4192ZM52.3032 70.2576H28.884C26.2962 70.2576 24.2002 68.1615 24.2002 65.5737C24.2002 62.9859 26.2962 60.8899 28.884 60.8899H52.3032C54.891 60.8899 56.9871 62.9859 56.9871 65.5737C56.9871 68.1615 54.891 70.2576 52.3032 70.2576ZM28.884 51.5222C26.2962 51.5222 24.2002 49.4262 24.2002 46.8384C24.2002 44.2506 26.2962 42.1545 28.884 42.1545H68.6967C71.2845 42.1545 73.3805 44.2506 73.3805 46.8384C73.3805 49.4262 71.2845 51.5222 68.6967 51.5222H28.884Z" fill="#E55A29"/>
</svg>
