<svg width="147" height="145" viewBox="0 0 147 145" fill="none" xmlns="http://www.w3.org/2000/svg">
<path d="M88.2213 132.212C87.0154 132.513 85.8004 132.776 84.5782 133.001C81.399 133.593 79.2972 136.65 79.8853 139.832C80.1629 141.337 81.0198 142.673 82.2718 143.553C82.9095 144.003 83.6311 144.321 84.3939 144.488C85.1566 144.655 85.945 144.667 86.7126 144.523C88.1685 144.253 89.6159 143.939 91.0527 143.581C94.1921 142.8 96.1047 139.619 95.3215 136.482C94.5401 133.341 91.3626 131.43 88.2213 132.212ZM131.547 53.6833C131.94 54.8735 132.705 55.9058 133.73 56.6275C135.197 57.661 137.118 58.0087 138.95 57.4028C142.022 56.3828 143.686 53.0702 142.67 49.9997C142.205 48.5942 141.696 47.2032 141.146 45.8287C139.944 42.8244 136.536 41.3617 133.531 42.5634C130.528 43.7645 129.064 47.1733 130.267 50.1786C130.729 51.3335 131.156 52.5023 131.547 53.6833ZM107.259 123.847C106.221 124.533 105.162 125.187 104.084 125.809C101.281 127.426 100.32 131.009 101.937 133.812C102.361 134.548 102.94 135.183 103.634 135.673C105.441 136.945 107.896 137.135 109.939 135.958C111.222 135.218 112.482 134.44 113.718 133.623C116.416 131.84 117.159 128.205 115.375 125.506C113.592 122.805 109.958 122.063 107.259 123.847ZM146.313 70.0464C146.185 66.8128 143.462 64.2959 140.227 64.4221C136.997 64.5497 134.478 67.2742 134.605 70.5067C134.653 71.7425 134.666 72.9969 134.637 74.2315C134.592 76.2594 135.584 78.067 137.125 79.1535C138.075 79.8232 139.204 80.1942 140.366 80.2189C143.6 80.2907 146.279 77.7259 146.351 74.4906C146.383 73.0154 146.371 71.5207 146.313 70.0464ZM130.59 108.435C127.997 106.489 124.329 107.017 122.387 109.606C121.64 110.6 120.864 111.572 120.058 112.519C117.962 114.981 118.258 118.68 120.721 120.777C120.861 120.896 121.003 121.005 121.15 121.108C123.598 122.834 127 122.437 128.98 120.115C129.941 118.984 130.869 117.824 131.76 116.637C133.702 114.048 133.176 110.377 130.59 108.435ZM139.202 87.2561C136.115 86.2881 132.827 88.0067 131.86 91.0941C131.487 92.2812 131.079 93.4568 130.636 94.6194C129.663 97.1745 130.595 99.9859 132.732 101.492C133.132 101.774 133.567 102.005 134.025 102.179C137.047 103.332 140.432 101.815 141.585 98.7914C142.111 97.4085 142.596 96.0105 143.04 94.5991C144.007 91.5111 142.289 88.2241 139.202 87.2561ZM62.6603 133.054C57.4642 132.125 52.4122 130.519 47.6329 128.278C47.5765 128.249 47.5261 128.215 47.4669 128.189C46.3406 127.659 45.2301 127.097 44.1367 126.502C44.1329 126.498 44.126 126.495 44.1201 126.493C42.1118 125.386 40.1659 124.17 38.2912 122.85C10.7315 103.436 4.10499 65.2198 23.5201 37.6603C27.7419 31.6698 32.8508 26.672 38.5466 22.7109C38.6167 22.6621 38.6869 22.6135 38.7565 22.5643C58.8273 8.73495 86.0804 7.80294 107.392 22.0139L102.815 28.6275C101.543 30.4684 102.325 31.8098 104.553 31.6093L124.436 29.8293C126.667 29.6288 128.001 27.6993 127.401 25.5452L122.061 6.30798C121.464 4.15136 119.933 3.89322 118.659 5.73374L114.072 12.363C98.4314 1.86412 79.6726 -2.13928 61.0534 1.08938C59.1897 1.41277 57.339 1.80779 55.5056 2.27357C55.4915 2.27608 55.4802 2.27764 55.4689 2.28015C55.3985 2.29738 55.327 2.32025 55.2584 2.33936C39.2029 6.46242 25.1946 15.8266 15.1988 29.1874C15.1145 29.2873 15.0278 29.385 14.9482 29.4937C14.6142 29.9443 14.2858 30.3989 13.9629 30.8574C13.4326 31.6106 12.9169 32.3739 12.416 33.1469C12.3536 33.2396 12.306 33.3339 12.2515 33.4276C4.00286 46.2097 0.0242165 60.987 0.706538 76.0313C0.708104 76.0808 0.705285 76.1306 0.706538 76.1814C0.774238 77.66 0.887908 79.1362 1.04739 80.6077C1.05584 80.7023 1.07683 80.7919 1.09281 80.8865C1.2557 82.3697 1.46445 83.8475 1.71874 85.3179C4.33274 100.398 11.4467 113.969 22.1066 124.528C22.1314 124.553 22.1571 124.58 22.1821 124.605C22.1909 124.615 22.2006 124.62 22.2091 124.629C25.1004 127.481 28.2221 130.09 31.5426 132.429C40.3207 138.614 50.0953 142.703 60.5926 144.587C63.7777 145.159 66.8203 143.039 67.3917 139.855C67.9628 136.67 65.8444 133.625 62.6603 133.054Z" fill="#E55A29"/>
<path d="M69.9048 25.5352C67.2849 25.5352 65.1627 27.6592 65.1627 30.2754V77.5012L108.354 99.8289C109.026 100.177 109.77 100.359 110.526 100.358C112.242 100.358 113.899 99.4242 114.741 97.7942C115.943 95.4678 115.034 92.6097 112.707 91.4083L74.6416 71.7288V30.2754C74.6413 27.6592 72.5216 25.5352 69.9048 25.5352Z" fill="#E55A29"/>
</svg>
